{"asset":{"version":"2.0","generator":"babylon.js glTF exporter for 3dsmax 2017 v20200312.5"},"scene":0,"scenes":[{"nodes":[0,1]}],"nodes":[{"mesh":0,"name":"GeoSphere001"},{"name":"Default light"}],"meshes":[{"primitives":[{"attributes":{"POSITION":1,"NORMAL":2,"TEXCOORD_0":3},"indices":0,"material":0}],"name":"GeoSphere001"}],"accessors":[{"bufferView":0,"componentType":5123,"count":240,"type":"SCALAR","name":"accessorIndices"},{"bufferView":1,"componentType":5126,"count":240,"max":[1.60325432,1.48308635,1.87353587],"min":[-1.2586273,-1.12731075,-1.20072961],"type":"VEC3","name":"accessorPositions"},{"bufferView":1,"byteOffset":2880,"componentType":5126,"count":240,"type":"VEC3","name":"accessorNormals"},{"bufferView":2,"componentType":5126,"count":240,"type":"VEC2","name":"accessorUVs"}],"bufferViews":[{"buffer":0,"byteLength":480,"name":"bufferViewScalar"},{"buffer":0,"byteOffset":480,"byteLength":5760,"byteStride":12,"name":"bufferViewFloatVec3"},{"buffer":0,"byteOffset":6240,"byteLength":1920,"byteStride":8,"name":"bufferViewFloatVec2"}],"buffers":[{"uri":"meteor.bin","byteLength":8160}],"materials":[{"pbrMetallicRoughness":{"baseColorFactor":[0.5882353,0.5882353,0.5882353,1.0],"metallicFactor":0.0,"roughnessFactor":0.450053632},"name":"gray-light"}]}