{"asset":{"version":"2.0","generator":"babylon.js glTF exporter for 3dsmax 2017 v20200312.5"},"scene":0,"scenes":[{"nodes":[0,1]}],"nodes":[{"mesh":0,"scale":[0.7999999,0.799999952,0.7999999],"name":"sky"},{"name":"Default light"}],"meshes":[{"primitives":[{"attributes":{"POSITION":1,"NORMAL":2,"TEXCOORD_0":3},"indices":0,"material":0}],"name":"sky"}],"accessors":[{"bufferView":0,"componentType":5123,"count":672,"type":"SCALAR","name":"accessorIndices"},{"bufferView":1,"componentType":5126,"count":672,"max":[436.697968,436.697968,436.697968],"min":[-436.697968,-436.697968,-436.697968],"type":"VEC3","name":"accessorPositions"},{"bufferView":1,"byteOffset":8064,"componentType":5126,"count":672,"type":"VEC3","name":"accessorNormals"},{"bufferView":2,"componentType":5126,"count":672,"type":"VEC2","name":"accessorUVs"}],"bufferViews":[{"buffer":0,"byteLength":1344,"name":"bufferViewScalar"},{"buffer":0,"byteOffset":1344,"byteLength":16128,"byteStride":12,"name":"bufferViewFloatVec3"},{"buffer":0,"byteOffset":17472,"byteLength":5376,"byteStride":8,"name":"bufferViewFloatVec2"}],"buffers":[{"uri":"sky.bin","byteLength":22848}],"materials":[{"pbrMetallicRoughness":{"baseColorFactor":[0.5882353,0.5882353,0.5882353,1.0],"metallicFactor":0.0,"roughnessFactor":0.450053632},"name":"04 - Default"}]}